<svg xmlns="http://www.w3.org/2000/svg" viewBox="0 0 256 256" role="img" aria-label="Velociclos PCM">
  <defs>
    <linearGradient id="g" x1="0" y1="0" x2="1" y2="1">
      <stop offset="0" stop-color="#2563eb"/>
      <stop offset="1" stop-color="#1d4ed8"/>
    </linearGradient>
  </defs>

  <rect width="256" height="256" rx="56" fill="url(#g)"/>

  <!-- Monograma simples "V" -->
  <path
    d="M64 76c0-4.418 3.582-8 8-8h18.5c3.216 0 6.13 1.922 7.41 4.87L128 150.7l30.09-77.83c1.28-2.948 4.194-4.87 7.41-4.87H184c4.418 0 8 3.582 8 8a8 8 0 0 1-.57 2.98l-45.5 111.5c-2.5 6.13-8.47 10.12-15.09 10.12h-5.68c-6.62 0-12.59-3.99-15.09-10.12l-45.5-111.5A8 8 0 0 1 64 76Z"
    fill="#ffffff"
    opacity="0.95"
  />

  <text
    x="128"
    y="224"
    text-anchor="middle"
    font-family="Inter, system-ui, -apple-system, Segoe UI, Roboto, Arial, sans-serif"
    font-size="28"
    font-weight="800"
    fill="#ffffff"
    opacity="0.95"
    letter-spacing="1"
  >PCM</text>
</svg>
